<?xml version="1.0" encoding="UTF-8" standalone="no"?>
<!-- Created with Inkscape (http://www.inkscape.org/) -->

<svg
   xmlns:dc="http://purl.org/dc/elements/1.1/"
   xmlns:cc="http://creativecommons.org/ns#"
   xmlns:rdf="http://www.w3.org/1999/02/22-rdf-syntax-ns#"
   xmlns:svg="http://www.w3.org/2000/svg"
   xmlns="http://www.w3.org/2000/svg"
   xmlns:sodipodi="http://sodipodi.sourceforge.net/DTD/sodipodi-0.dtd"
   xmlns:inkscape="http://www.inkscape.org/namespaces/inkscape"
   width="900"
   height="600"
   id="svg2"
   inkscape:label="Pozadí"
   version="1.1"
   inkscape:version="0.48.3.1 r9886"
   sodipodi:docname="graph.svg">
  <defs
     id="defs3">
    <marker
       inkscape:stockid="Arrow1Lend"
       orient="auto"
       refY="0"
       refX="0"
       id="Arrow1Lend"
       style="overflow:visible">
      <path
         id="path4121"
         d="M 0,0 5,-5 -12.5,0 5,5 0,0 z"
         style="fill-rule:evenodd;stroke:#000000;stroke-width:1pt"
         transform="matrix(-0.8,0,0,-0.8,-10,0)"
         inkscape:connector-curvature="0" />
    </marker>
    <marker
       inkscape:stockid="Arrow1Lstart"
       orient="auto"
       refY="0"
       refX="0"
       id="Arrow1Lstart"
       style="overflow:visible">
      <path
         id="path4118"
         d="M 0,0 5,-5 -12.5,0 5,5 0,0 z"
         style="fill-rule:evenodd;stroke:#000000;stroke-width:1pt"
         transform="matrix(0.8,0,0,0.8,10,0)"
         inkscape:connector-curvature="0" />
    </marker>
  </defs>
  <sodipodi:namedview
     id="base"
     pagecolor="#ffffff"
     bordercolor="#666666"
     borderopacity="1.0"
     inkscape:pageopacity="0.0"
     inkscape:pageshadow="2"
     inkscape:zoom="0.7"
     inkscape:cx="68.723082"
     inkscape:cy="217.58431"
     inkscape:document-units="px"
     inkscape:current-layer="layer1"
     showgrid="false"
     inkscape:window-width="1680"
     inkscape:window-height="1003"
     inkscape:window-x="-4"
     inkscape:window-y="-3"
     inkscape:window-maximized="1" />
  <metadata
     id="metadata6">
    <rdf:RDF>
      <cc:Work
         rdf:about="">
        <dc:format>image/svg+xml</dc:format>
        <dc:type
           rdf:resource="http://purl.org/dc/dcmitype/StillImage" />
        <dc:title />
      </cc:Work>
    </rdf:RDF>
  </metadata>
  <g
     inkscape:label="Vrstva 1"
     inkscape:groupmode="layer"
     id="layer1"
     transform="translate(0,-452.36218)">
    <path
       style="fill:none;stroke:#000000;stroke-width:1;stroke-linecap:butt;stroke-linejoin:miter;stroke-miterlimit:4;stroke-opacity:1;stroke-dasharray:none"
       d="m 22.835496,912.03236 813.286984,0"
       id="path4746"
       inkscape:connector-curvature="0" />
    <path
       style="fill:none;stroke:#000000;stroke-width:1;stroke-linecap:butt;stroke-linejoin:miter;stroke-miterlimit:4;stroke-opacity:1;stroke-dasharray:none"
       d="m 22.836254,783.42568 813.287006,0"
       id="path4746-6"
       inkscape:connector-curvature="0" />
    <path
       style="fill:none;stroke:#000000;stroke-width:1;stroke-linecap:butt;stroke-linejoin:miter;stroke-miterlimit:4;stroke-opacity:1;stroke-dasharray:none"
       d="m 22.836254,652.56277 813.287006,0"
       id="path4746-6-3"
       inkscape:connector-curvature="0" />
    <path
       style="fill:none;stroke:#000000;stroke-width:1;stroke-linecap:butt;stroke-linejoin:miter;stroke-miterlimit:4;stroke-opacity:1;stroke-dasharray:none"
       d="m 22.836237,528.46863 813.287023,0"
       id="path4746-6-1"
       inkscape:connector-curvature="0" />
    <path
       style="fill:none;stroke:#000000;stroke-width:2;stroke-linecap:butt;stroke-linejoin:miter;stroke-miterlimit:4;stroke-opacity:1;stroke-dasharray:none;marker-start:none;marker-mid:none;marker-end:none"
       d="m 22.857146,482.36218 0,548.57142 854.285714,0"
       id="path2984"
       inkscape:connector-curvature="0"
       sodipodi:nodetypes="ccc" />
    <path
       style="fill:none;stroke:#d40000;stroke-width:2;stroke-linecap:butt;stroke-linejoin:miter;stroke-miterlimit:4;stroke-opacity:1;stroke-dasharray:none"
       d="m 33.002458,542.7415 c 32.66865,53.07255 8.884415,6.903 11.315677,21.00929 0.609994,3.53921 0.87213,7.27636 2.263132,10.50463 0.954224,2.21457 3.01751,3.50154 4.526265,5.25231 0.754377,0.87539 1.308924,2.07254 2.263132,2.62618 4.18628,2.42888 4.86628,-7.68122 9.052545,-5.25233 1.908447,1.10729 2.617833,4.14503 4.526265,5.25233 0.674739,0.39147 1.588408,-0.39149 2.263132,0 0.954223,0.55362 1.308925,2.07251 2.263147,2.62615 2.133704,1.23797 4.804497,1.09061 6.789397,2.62617 0.627674,0.48557 -0.53343,2.00715 0,2.62614 1.192772,1.38411 3.176801,1.4517 4.526265,2.62617 1.706969,1.48558 2.819311,3.76673 4.52628,5.25231 1.349464,1.17446 3.333493,1.24206 4.526265,2.62618 0.274335,0.31832 -0.232291,4.1741 0,5.25232 0.578579,2.68554 1.795288,5.16401 2.263132,7.87846 0.295896,1.71678 0,3.50154 0,5.25233 0,0.87539 -0.418449,1.89778 0,2.62616 1.183568,2.06012 3.342697,3.1922 4.526265,5.25231 0.418464,0.72836 -0.238548,1.7957 0,2.62616 0.533429,1.85697 1.508753,3.50155 2.263133,5.25232 0.75437,1.75077 1.25103,3.68639 2.26315,5.25232 1.28022,1.98077 3.57203,3.03776 4.52626,5.25232 0.67474,1.56594 -0.47711,3.59139 0,5.25231 0.33737,1.17448 1.50876,1.75077 2.26313,2.62617 2.30052,2.66955 3.61285,3.63875 4.52627,7.87849 0.36593,1.69849 -0.67472,3.68638 0,5.25231 1.04552,2.42644 9.65946,10.56829 11.31567,13.1308 1.01212,1.56593 1.32745,3.62365 2.26314,5.25231 0.59179,1.03006 1.50875,1.75078 2.26313,2.62617 3.7719,4.37692 7.54379,8.75388 11.31567,13.13081 1.50876,1.75076 3.24606,3.27155 4.52628,5.25231 2.02422,3.13187 2.65489,7.24728 4.52628,10.50464 7.50586,8.70987 -1.06686,-2.47596 2.26313,5.25232 0.47711,1.1073 2.00439,1.42513 2.26314,2.62615 0.54888,2.54776 0,5.25234 0,7.8785 0,5.25231 0,10.50462 0,15.75695 0,7.87848 0,15.75694 0,23.63544 0,1.75077 0,3.50153 0,5.25231 0,0.87539 -0.41845,1.8978 0,2.62617 1.18356,2.06013 3.01751,3.50154 4.52626,5.25232 0.75437,0.87539 1.78602,1.51888 2.26313,2.62616 1.06686,2.47597 1.19628,5.4025 2.26314,7.87847 0.47711,1.10729 1.50876,1.75077 2.26314,2.62616 0.75438,0.87538 1.50876,1.75077 2.26313,2.62616 2.26314,2.62618 4.52627,5.25233 6.7894,7.8785 1.50876,1.75076 3.34271,3.19219 4.52627,5.25231 0.9357,1.62866 1.32744,3.62364 2.26314,5.25232 0.99122,1.72531 6.38111,6.4571 6.7894,7.87848 0.47711,1.66093 0,3.50155 0,5.25231 0,2.62616 0,5.25232 0,7.87849 0,0.87539 0,3.50154 0,2.62615 0,-12.52393 -0.56035,3.25954 4.52626,-18.38311 1.20738,-5.13714 1.91121,-10.44788 2.26314,-15.75695 0.0537,-0.80982 -0.0545,-36.47138 0,-36.76625 1.33623,-7.23598 10.77929,-26.99319 13.5788,-34.14008 3.1758,-8.10749 6.90871,-20.59534 9.05255,-28.88777 1.78752,-6.91419 2.21593,-14.30696 4.52627,-21.00927 0.39622,-1.14944 1.78601,-1.51888 2.26312,-2.62617 0.33738,-0.78297 -0.33736,-1.84317 0,-2.62614 0.47712,-1.1073 1.30893,-2.07252 2.26314,-2.62617 1.76441,-1.02371 6.47549,1.89761 6.78941,2.62617 1.01211,2.3489 -0.62173,5.35336 0,7.87846 0.92682,3.76423 3.19732,6.90635 4.52627,10.50466 0.93971,2.54438 1.50875,5.25231 2.26312,7.87846 1.50876,5.25233 3.36911,10.38584 4.52629,15.75696 1.11291,5.16579 0.49824,10.8418 2.26313,15.75697 2.09226,5.82694 6.31153,10.30434 9.05252,15.75696 26.4696,52.65517 -16.10496,-26.10105 15.84195,34.14008 2.85104,5.37608 6.8015,10.01027 9.05254,15.75696 1.59174,4.06352 1.15783,8.85542 2.26314,13.1308 1.16733,4.51528 3.09984,8.71683 4.52627,13.13079 0.83762,2.59196 1.50875,5.25232 2.26312,7.87849 0.75439,2.62615 0.83182,5.66389 2.26315,7.87847 1.0121,1.56593 3.33349,1.24206 4.52627,2.62616 0.53343,0.619 -0.33737,1.84318 0,2.62615 0.47711,1.1073 1.78601,1.5189 2.26313,2.62617 0.25361,0.58861 0,9.88059 0,10.50464 0,8.75385 0,17.50774 0,26.26159 0,8.16866 -1.01498,16.02756 2.26313,23.63545 0.47711,1.1073 1.50876,1.75077 2.26314,2.62616 1.50875,1.75078 2.75092,3.87889 4.52627,5.25232 0.62768,0.48557 1.50876,0 2.26314,0 4.52626,0 9.05253,0 13.5788,0 8.29816,0 16.59633,0 24.89447,0 5.28065,0 10.56131,0 15.84194,0 1.50876,0 3.01751,0 4.52627,0 0.75438,0 1.58841,0.39147 2.26315,0 0.95421,-0.55364 1.37547,-1.93946 2.26313,-2.62617 1.40354,-1.08577 3.33349,-1.24204 4.52627,-2.62615 0.53343,-0.619 -0.23855,-1.7957 0,-2.62616 0.53343,-1.85699 1.50875,-3.50155 2.26313,-5.25233 0.75438,-1.75076 1.07036,-3.86822 2.26313,-5.25231 0.53343,-0.61899 1.63546,0.48557 2.26313,0 1.77536,-1.37342 2.75093,-3.87889 4.52628,-5.25232 0.62768,-0.48557 1.53129,0.21231 2.26313,0 2.31432,-0.67139 4.59674,-1.53571 6.7894,-2.62616 3.10091,-1.54213 5.73329,-4.55201 9.05255,-5.25233 5.19547,-1.09615 10.5613,0 15.84194,0 12.23484,0 15.12861,0.86349 27.15762,-2.62616 4.62865,-1.34277 8.95014,-3.90954 13.57879,-5.25231 4.4517,-1.29144 9.12711,-1.33471 13.57881,-2.62616 4.52628,-1.75076 9.05255,-3.50154 13.57881,-5.2523 0.75437,-0.87542 1.30891,-2.07254 2.26313,-2.62618 0.67474,-0.3915 1.50875,0 2.26314,0 0.75437,0 1.50876,0 2.26314,0 2.26313,0 4.52627,0 6.7894,0 1.50875,0 3.09494,-0.55366 4.52626,0 8.00803,3.09753 8.82043,3.26586 11.31568,10.50464 0.88598,2.57022 1.03578,5.50474 2.26313,7.87847 1.09779,2.12315 3.01751,3.50156 4.52627,5.25233 0.75437,2.62616 1.19628,5.40251 2.26315,7.87848 0.47711,1.10729 1.50875,1.75077 2.26313,2.62615 1.50876,1.75077 2.81929,3.76674 4.52627,5.25234 1.34947,1.17444 3.33349,1.24203 4.52626,2.62615 1.38635,1.60871 1.92665,6.87293 4.52628,7.87848 0.1486,0.0574 11.16704,0.0574 11.31566,0 2.02421,-0.78297 2.61783,-4.14504 4.52628,-5.25232 2.37691,-1.3791 10.68498,2.47979 11.31566,2.62615 1.47946,0.34337 3.09495,-0.55364 4.52628,0 1.01209,0.3915 1.25102,2.23467 2.26314,2.62617 1.43133,0.55364 3.17678,-0.78297 4.52626,0 1.90844,1.10728 2.81931,3.76673 4.52627,5.25231 1.34948,1.17446 3.0798,1.61907 4.52627,2.62618 2.33234,1.62386 4.45707,3.62843 6.7894,5.25231 10.05838,7.00308 0,-3.50155 18.10507,10.50463 2.66303,2.06014 4.12639,5.81835 6.78941,7.87849 1.9849,1.53553 4.59674,1.53571 6.7894,2.62616 3.10091,1.54213 6.03502,3.50153 9.05254,5.25231 1.50876,0.87539 3.07982,1.61908 4.52627,2.62615 2.33234,1.6239 4.45707,3.62845 6.7894,5.25235 1.44646,1.00708 3.07982,1.61907 4.52628,2.62615 2.33233,1.62388 4.35659,3.8408 6.7894,5.25231 5.00337,2.90298 5.19495,2.62617 9.05254,2.62617 1.50876,0 3.01751,0 4.52627,0 0.75437,0 1.58839,-0.3915 2.26313,0 2.71577,1.57569 4.07365,6.30271 6.7894,7.87852 1.34948,0.78294 3.09494,-0.5537 4.52627,0 2.0242,0.78294 2.61782,4.14501 4.52627,5.25223 1.00704,0.5844 8.01741,-0.40037 9.05255,0 1.01209,0.39156 1.25102,2.23466 2.26312,2.62622 1.43134,0.55365 3.09494,-0.5537 4.52627,0 2.02421,0.78295 2.61783,4.14503 4.52626,5.25213 0.64772,0.376 10.10669,0 11.31568,0 1.26319,0 10.2797,-0.4004 11.31568,0 1.01209,0.3918 1.25102,2.235 2.26313,2.6263 1.32411,0.5123 11.63628,0 13.57881,0 1.50875,0 3.09493,-0.5537 4.52626,0 1.53249,0.5929 5.06063,6.8755 6.7894,7.8784 0.67474,0.3917 1.50877,0 2.26315,0 1.50876,0 3.12543,-0.6501 4.52627,0 2.52541,1.1724 4.3566,3.8409 6.78939,5.2525 0.68808,0.3991 7.48981,0 9.05255,0"
       id="path4744"
       inkscape:connector-curvature="0" />
  </g>
</svg>
